<svg xmlns="http://www.w3.org/2000/svg" fill="none" viewBox="0 0 64 64" aria-hidden="true"><path fill="#2A2D7C" stroke="#B6B6B6" stroke-miterlimit="10" stroke-width=".15" d="M32 62.72c16.966 0 30.72-13.754 30.72-30.72S48.966 1.28 32 1.28 1.28 15.034 1.28 32 15.034 62.72 32 62.72z"/><path fill="#fff" d="M20.656 42.547l2.95-4.448-4.992 1.891-1.632-5.084-1.635 5.084-4.992-1.89 2.954 4.447-4.592 2.72 5.321.464-.736 5.287 3.68-3.866 3.68 3.866-.736-5.287 5.319-.464-4.589-2.72zM51.891 26.842l-.349 2.518 1.75-1.843 1.751 1.843-.349-2.518 2.535-.218-2.186-1.3 1.408-2.118-2.377.903-.781-2.423-.778 2.423-2.377-.903 1.408 2.119-2.19 1.299 2.535.218zM4.698 17.955c-.036.067-.064.138-.1.205l.416-.205h-.316zM45.235 17.955H19.808V29.258h1.882v-8.615l17.228 8.615h6.317L26.4 19.837h4.211l14.624 7.312v-1.05l-12.518-6.262h12.518v-1.882zM12.272 8.464v1.152l-.816-.406a30.304 30.304 0 00-3.02 3.094h5.72v-1.747h.004V7.024c-.646.46-1.283.931-1.888 1.44zM12.272 20.643v8.615h1.885v-9.559l-1.885.944z"/><path fill="#fff" d="M14.154 17.955H5.01l-.41.205a30.356 30.356 0 00-1.683 4l4.647-2.323h4.211L2.208 24.62c-.1.403-.224.8-.307 1.206l10.371-5.184 1.882-.944v-1.744zM32.717 10.422l-3.767 1.882h16.285v-1.882H32.717zM32.717 10.42l12.368-6.183a31.02 31.02 0 00-3.495-1.411L26.4 10.422h-4.211l16.685-8.339c-.5-.115-.999-.211-1.504-.3L21.69 9.615V3.088c-.634.227-1.268.454-1.882.72V12.3h9.142l3.767-1.882z"/><path fill="#ED2224" d="M14.157 17.955v11.299h5.651V17.955h25.427v-5.654H19.808V3.808a30.91 30.91 0 00-5.651 3.216v5.277H8.435a31.187 31.187 0 00-3.737 5.654H14.157z"/><path fill="#ED2224" d="M26.4 10.422L41.587 2.83a29.56 29.56 0 00-2.717-.746l-16.681 8.34H26.4zM26.4 19.837l18.835 9.42V27.15l-14.624-7.312H26.4zM7.565 19.837L2.918 22.16c-.272.81-.502 1.629-.71 2.46l9.565-4.783H7.565z"/><path fill="#CCC" d="M32 1.6c16.64 0 30.4 13.76 30.4 30.4S48.64 62.4 32 62.4 1.6 48.64 1.6 32 15.36 1.6 32 1.6zM32 0C14.4 0 0 14.4 0 32s14.4 32 32 32 32-14.4 32-32S49.6 0 32 0z"/></svg>