<svg xmlns="http://www.w3.org/2000/svg" fill="none" viewBox="0 0 64 64" aria-hidden="true"><path fill="#DD2E26" d="M32 62.72c16.966 0 30.72-13.754 30.72-30.72S48.966 1.28 32 1.28 1.28 15.034 1.28 32 15.034 62.72 32 62.72z"/><path fill="#FFDE00" d="M18.707 13.766l-2.064-6.342-2.07 6.342-6.65.013 5.37 3.94-2.045 6.351 5.389-3.91 5.385 3.914-2.038-6.352 5.373-3.936-6.65-.02zM33.078 26.051L31.7 27.798l-2.08-.761 1.226 1.85-1.37 1.753 2.135-.602 1.235 1.844.096-2.224 2.131-.615-2.077-.768.083-2.224zM38.806 21.802l-.77-2.087-.609 2.138-2.211.09 1.837 1.244-.599 2.141 1.744-1.37 1.843 1.236-.758-2.093 1.74-1.38-2.217.08zM37.29 14.38l.326 2.202 1.034-1.964 2.188.374-1.548-1.6 1.024-1.965-1.988.973-1.555-1.587.317 2.198-1.984.986 2.186.384zM31.526 8.5l1.146 1.9.198-2.218 2.16-.508-2.038-.868.189-2.217-1.46 1.68-2.044-.861 1.136 1.907-1.45 1.683 2.163-.499z"/><path fill="#CCC" d="M32 1.6c16.64 0 30.4 13.76 30.4 30.4S48.64 62.4 32 62.4 1.6 48.64 1.6 32 15.36 1.6 32 1.6zM32 0C14.4 0 0 14.4 0 32s14.4 32 32 32 32-14.4 32-32S49.6 0 32 0z"/></svg>