<svg xmlns="http://www.w3.org/2000/svg" fill="none" viewBox="0 0 64 64" aria-hidden="true"><path fill="#fff" stroke="#B6B6B6" stroke-miterlimit="10" stroke-width=".15" d="M32 62.72c16.966 0 30.72-13.754 30.72-30.72S48.966 1.28 32 1.28 1.28 15.034 1.28 32 15.034 62.72 32 62.72z"/><path fill="#FF9932" d="M32 1.28c-13.37 0-24.714 8.557-28.934 20.48h57.868C56.714 9.837 45.37 1.28 32 1.28z"/><path fill="#128807" d="M60.934 42.24H3.066C7.286 54.166 18.63 62.72 32 62.72c13.37 0 24.714-8.557 28.934-20.48z"/><path fill="navy" d="M32 22.477A9.522 9.522 0 0022.477 32 9.522 9.522 0 0032 41.523 9.522 9.522 0 0041.523 32 9.522 9.522 0 0032 22.477zm-.602 17.856c.004-.256-.166-.487-.425-.519a.51.51 0 00-.563.42c-.196-.039-.381-.106-.573-.157l1.558-4.64c-.025-.426.176-1.571.605-3.437-.56 1.827-.96 2.925-1.197 3.283l-.966 4.797c-.192-.051-.384-.115-.576-.18.07-.249-.035-.514-.275-.617-.247-.102-.512.016-.637.243a9.132 9.132 0 01-.525-.284l2.704-4.074c.083-.422.576-1.478 1.472-3.168-1.014 1.622-1.683 2.573-2.006 2.864l-2.176 4.378c-.17-.1-.356-.173-.519-.282a.509.509 0 00-.099-.7.502.502 0 00-.669.066c-.153-.13-.326-.243-.467-.384l3.693-3.26c.192-.39.94-1.28 2.243-2.682-1.402 1.302-2.291 2.051-2.678 2.246L26.06 37.94c-.141-.14-.253-.313-.384-.467.185-.18.227-.46.067-.669a.51.51 0 00-.704-.099c-.112-.163-.186-.346-.282-.518l4.378-2.176c.291-.327 1.242-.996 2.864-2.01-1.69.896-2.746 1.389-3.168 1.475l-4.074 2.704a8.312 8.312 0 01-.284-.525.502.502 0 00.243-.636.502.502 0 00-.618-.276 10.094 10.094 0 01-.179-.576l4.797-.966c.358-.24 1.456-.64 3.283-1.2-1.866.429-3.011.63-3.443.605l-4.64 1.558c-.051-.192-.119-.374-.157-.573a.506.506 0 00.42-.563c-.036-.259-.266-.425-.52-.425-.009-.202-.057-.397-.057-.602 0-.205.045-.4.061-.602.256.004.483-.166.515-.425a.51.51 0 00-.419-.563c.038-.196.106-.381.157-.573l4.64 1.558c.432-.025 1.577.176 3.443.605-1.827-.56-2.925-.96-3.283-1.197l-4.797-.97c.051-.191.115-.383.18-.575.249.07.514-.036.617-.276.102-.246-.016-.512-.243-.636.086-.183.185-.352.281-.525l4.074 2.704c.425.086 1.481.579 3.171 1.475-1.622-1.014-2.573-1.683-2.864-2.006l-4.378-2.18c.1-.17.173-.352.282-.515.224.16.534.119.7-.099a.502.502 0 00-.066-.669c.13-.153.243-.326.384-.467l3.26 3.693c.39.192 1.28.94 2.682 2.243-1.302-1.402-2.051-2.291-2.246-2.678L26.06 26.06c.144-.141.317-.25.467-.384.18.185.46.227.672.067a.51.51 0 00.102-.704c.16-.109.346-.182.516-.282l2.176 4.378c.323.291.992 1.242 2.006 2.864-.896-1.69-1.389-2.746-1.475-3.168l-2.704-4.077c.173-.099.345-.195.525-.285.124.23.39.346.636.244a.503.503 0 00.279-.618c.189-.06.377-.122.576-.176l.966 4.797c.237.358.637 1.456 1.197 3.283-.429-1.866-.63-3.011-.605-3.443l-1.558-4.637c.192-.051.374-.118.573-.157a.504.504 0 00.563.42.502.502 0 00.425-.519c.202-.013.397-.06.602-.06.205 0 .4.044.602.06-.004.256.166.486.425.518a.51.51 0 00.563-.419c.196.039.381.106.573.157l-1.558 4.64c.025.429-.176 1.574-.605 3.44.56-1.827.96-2.925 1.197-3.283l.966-4.797c.192.051.384.115.576.18-.07.249.035.514.275.617.247.102.512-.016.637-.243.183.09.352.188.525.284l-2.7 4.074c-.087.422-.58 1.478-1.476 3.168 1.014-1.622 1.683-2.573 2.006-2.864l2.176-4.378c.17.1.356.173.519.282a.513.513 0 00.099.704c.208.16.493.115.669-.067.153.131.326.243.467.384l-3.693 3.26c-.192.388-.94 1.277-2.243 2.679 1.402-1.302 2.291-2.051 2.678-2.246l3.261-3.693c.141.14.253.313.384.467-.185.18-.227.46-.067.669.17.217.48.259.7.099.113.163.186.346.282.518l-4.377 2.176c-.288.327-1.239.996-2.861 2.01 1.69-.896 2.746-1.389 3.168-1.475l4.074-2.704c.102.173.198.345.284.525a.502.502 0 00-.243.636.5.5 0 00.615.276c.064.188.124.377.179.576l-4.794.966c-.358.24-1.456.64-3.283 1.2 1.866-.429 3.011-.63 3.443-.605l4.637-1.558c.051.192.118.374.157.573a.506.506 0 00-.42.563c.036.259.266.425.519.425.016.202.064.397.064.602 0 .205-.045.4-.06.602-.257-.004-.487.166-.52.425a.51.51 0 00.42.563c-.038.196-.106.381-.157.573l-4.637-1.558c-.435.025-1.58-.176-3.446-.605 1.827.56 2.925.96 3.283 1.197l4.797.966c-.051.192-.115.384-.18.576-.249-.07-.514.035-.614.275-.102.247.016.512.244.637-.09.183-.186.352-.285.525l-4.074-2.704C34.746 33.389 33.69 32.896 32 32c1.622 1.014 2.573 1.683 2.864 2.006l4.378 2.176c-.1.17-.173.356-.282.519a.509.509 0 00-.7.099.502.502 0 00.066.669c-.13.153-.243.326-.384.467l-3.26-3.693c-.39-.192-1.28-.94-2.682-2.243 1.302 1.402 2.051 2.291 2.246 2.678l3.693 3.261c-.14.141-.313.253-.467.384-.18-.185-.46-.227-.669-.067a.51.51 0 00-.099.7c-.163.113-.346.186-.518.282l-2.176-4.377c-.327-.288-.996-1.239-2.01-2.861.896 1.69 1.389 2.746 1.475 3.168l2.704 4.074a8.312 8.312 0 01-.525.284.502.502 0 00-.636-.243.502.502 0 00-.276.618c-.188.064-.377.125-.576.179l-.966-4.797c-.24-.358-.64-1.456-1.2-3.283.429 1.866.63 3.011.605 3.443l1.558 4.64c-.192.051-.374.119-.573.157a.506.506 0 00-.563-.42c-.259.036-.425.266-.425.52-.202.015-.397.06-.602.06-.205 0-.4-.051-.602-.067z"/><path fill="navy" d="M32 32c-.067 1.91-.173 3.072-.307 3.482L32 40.397l.307-4.915c-.134-.41-.24-1.572-.307-3.482zM23.603 32l4.915.307c.41-.134 1.572-.24 3.482-.307-1.91-.067-3.072-.173-3.482-.307L23.603 32zM32 23.603l-.307 4.915c.134.41.24 1.572.307 3.482.067-1.91.173-3.072.307-3.482L32 23.603zM40.397 32l-4.915-.307c-.41.134-1.572.24-3.482.307 1.91.067 3.072.173 3.482.307L40.397 32z"/><path fill="#CCC" d="M32 1.6c16.64 0 30.4 13.76 30.4 30.4S48.64 62.4 32 62.4 1.6 48.64 1.6 32 15.36 1.6 32 1.6zM32 0C14.4 0 0 14.4 0 32s14.4 32 32 32 32-14.4 32-32S49.6 0 32 0z"/></svg>