<svg xmlns="http://www.w3.org/2000/svg" fill="none" viewBox="0 0 64 64" aria-hidden="true"><path fill="#fff" stroke="#B6B6B6" stroke-width=".15" d="M32 62.72c16.966 0 30.72-13.754 30.72-30.72S48.966 1.28 32 1.28 1.28 15.034 1.28 32 15.034 62.72 32 62.72z"/><path fill="#000" d="M49.04 11.407l-2.13 1.42 3.905 5.858 2.13-1.42-3.905-5.858zM53.657 18.331l-2.13 1.42 3.905 5.858 2.13-1.42-3.904-5.858zM52.236 9.28l-2.13 1.42 8.52 12.78 2.13-1.42-8.52-12.78zM8.573 38.389l-2.13 1.42 8.52 12.781 2.13-1.42-8.52-12.781zM5.374 40.519l-2.13 1.42 3.906 5.858 2.13-1.42-3.906-5.858zM9.986 47.441l-2.13 1.42 3.906 5.857 2.13-1.42-3.906-5.857zM6.557 49.22l-.064-.1c.022.032.045.064.064.1zM14.961 11.411l-8.52 12.781 2.13 1.42 8.52-12.78-2.13-1.42zM11.764 9.277l-8.52 12.78 2.13 1.42 8.52-12.78-2.13-1.42zM6.49 14.883l.067-.102a.935.935 0 01-.067.102zM50.821 45.312l-3.905 5.858 2.13 1.42 3.906-5.858-2.13-1.42zM55.43 38.389l-3.905 5.858 2.13 1.42 3.906-5.858-2.13-1.42zM54.005 47.443L50.1 53.301l2.13 1.42 3.905-5.858-2.13-1.42zM58.626 40.518l-3.905 5.858 2.13 1.42 3.905-5.858-2.13-1.42z"/><path fill="#C60C30" d="M47.062 28.986c-.79-3.946-3.193-7.536-6.54-9.77-3.344-2.23-7.588-3.069-11.533-2.278-3.943.79-7.536 3.196-9.77 6.54a7.77 7.77 0 00-1.139 5.767 7.762 7.762 0 003.27 4.883 7.767 7.767 0 005.767 1.14A7.745 7.745 0 0032 32a7.762 7.762 0 014.883-3.27 7.784 7.784 0 015.767 1.139 7.762 7.762 0 013.27 4.883 7.784 7.784 0 01-1.14 5.766c2.231-3.344 3.073-7.587 2.282-11.532z"/><path fill="#003478" d="M45.923 34.752a7.762 7.762 0 00-3.27-4.883 7.767 7.767 0 00-5.767-1.14A7.76 7.76 0 0032 32a7.762 7.762 0 01-4.883 3.27 7.781 7.781 0 01-5.767-1.139 7.762 7.762 0 01-3.27-4.883 7.767 7.767 0 011.14-5.766c-2.231 3.344-3.07 7.587-2.28 11.532.791 3.946 3.194 7.536 6.542 9.77 3.344 2.23 7.587 3.069 11.532 2.278 3.946-.79 7.536-3.193 9.77-6.54a7.807 7.807 0 001.14-5.77z"/><path fill="#CCC" d="M32 1.6c16.64 0 30.4 13.76 30.4 30.4S48.64 62.4 32 62.4 1.6 48.64 1.6 32 15.36 1.6 32 1.6zM32 0C14.4 0 0 14.4 0 32s14.4 32 32 32 32-14.4 32-32S49.6 0 32 0z"/></svg>