<svg xmlns="http://www.w3.org/2000/svg" fill="none" viewBox="0 0 64 64" aria-hidden="true"><path fill="#fff" stroke="#B6B6B6" stroke-width=".15" d="M32 62.72c16.966 0 30.72-13.754 30.72-30.72S48.966 1.28 32 1.28 1.28 15.034 1.28 32 15.034 62.72 32 62.72z"/><path fill="#ED2939" d="M32 1.28C15.034 1.28 1.28 15.034 1.28 32h61.44C62.72 15.034 48.966 1.28 32 1.28z"/><path fill="#fff" d="M17.885 24.358a10.872 10.872 0 01-2.365-3.539 10.912 10.912 0 01-.838-4.179c0-1.427.284-2.858.832-4.18a10.983 10.983 0 012.368-3.538 10.91 10.91 0 017.26-3.184 11.603 11.603 0 00-3.801-.65 11.575 11.575 0 00-8.173 3.382 11.55 11.55 0 003.747 18.839 11.59 11.59 0 004.423.883c1.29 0 2.582-.22 3.801-.65a10.889 10.889 0 01-3.715-.816 10.932 10.932 0 01-3.54-2.368z"/><path fill="#fff" d="M21.2 15.715l1.568 1.203-.605-1.939 1.575-1.2-1.943.007-.595-1.946-.598 1.946-1.943-.004 1.575 1.197-.605 1.94 1.571-1.204zM33.51 11.84l-.595 1.946-1.942-.007 1.574 1.2-.601 1.94 1.564-1.204 1.572 1.203-.605-1.939 1.574-1.2-1.942.007-.599-1.946zM25.792 12.349l1.568-1.203 1.571 1.203-.605-1.943 1.572-1.196-1.94.006-.598-1.946-.595 1.946-1.946-.003 1.578 1.193-.605 1.943zM26.042 21.091l-1.943.007-.598-1.946-.599 1.946-1.939-.007 1.575 1.197-.605 1.942 1.571-1.203 1.565 1.203-.602-1.942 1.575-1.197zM31.805 21.098l-.599-1.946-.595 1.946-1.945-.004 1.577 1.194-.605 1.942 1.568-1.203 1.572 1.203-.605-1.942 1.571-1.197-1.94.007z"/><path fill="#CCC" d="M32 1.6c16.64 0 30.4 13.76 30.4 30.4S48.64 62.4 32 62.4 1.6 48.64 1.6 32 15.36 1.6 32 1.6zM32 0C14.4 0 0 14.4 0 32s14.4 32 32 32 32-14.4 32-32S49.6 0 32 0z"/></svg>